# xmcd CD database file
#
# Track frame offsets:
#	150
#	19011
#	37846
#	57679
#	77025
#	93745
#	106899
#	123807
#	139987
#	153308
#	166873
#	183731
#	211660
#
# Disc length: 3046 seconds
#
# Revision: 0
# Processed by: cddbd v1.5.2PL0 Copyright (c) Steve Scherf et al.
# Submitted via: CDex 1.51
#
DISCID=a70be40d
DTITLE=Sarah Letor - Again
DYEAR=2013
DGENRE=Jazz
TTITLE0=No Limit
TTITLE1=I Believe It
TTITLE2=Your Home
TTITLE3=Music's Kingdom
TTITLE4=Again
TTITLE5=Whenever
TTITLE6=Mister Road
TTITLE7=Joy
TTITLE8=Sitting On The White Cloud
TTITLE9=Anyway
TTITLE10=Made In Love
TTITLE11=We're Born...
TTITLE12=Again (30's)
EXTD=YEAR: 2013
EXTT0=
EXTT1=
EXTT2=
EXTT3=
EXTT4=
EXTT5=
EXTT6=
EXTT7=
EXTT8=
EXTT9=
EXTT10=
EXTT11=
EXTT12=
PLAYORDER=
